<?xml version="1.0" encoding="UTF-8"?><svg id="_Слой_2" xmlns="http://www.w3.org/2000/svg" viewBox="0 0 422.43 57.35"><defs><style>.cls-1{fill:none;}.cls-1,.cls-2{stroke:#000;stroke-linecap:round;stroke-linejoin:round;stroke-width:4px;}</style></defs><g id="Group_3"><path class="cls-2" d="m79.97,4.15v23.95c0,.4.32.72.72.72h27.73c.4,0,.72.32.72.72h0c0,.4-.32.72-.72.72h-27.73c-.4,0-.72.32-.72.72v23.2c0,.4-.32.72-.72.72h-.08c-.4,0-.72-.32-.72-.72V2.72c0-.4.32-.72.72-.72h32.64c.4,0,.72.32.72.72h0c0,.4-.32.72-.72.72h-31.13c-.4,0-.72.32-.72.72Z"/><path class="cls-2" d="m126.7,2h.08c.4,0,.72.32.72.72v50.02c0,.4.32.72.72.72h30.07c.4,0,.72.32.72.72h0c0,.4-.32.72-.72.72h-31.58c-.4,0-.72-.32-.72-.72V2.72c0-.4.32-.72.72-.72Z"/><path class="cls-2" d="m170.56,2h0c.42,0,.76.34.76.76v51.38c0,.42-.34.76-.76.76h0c-.42,0-.76-.34-.76-.76V2.76c0-.42.34-.76.76-.76Z"/><path class="cls-2" d="m230.1,19.38c0,10.96-7.78,17.38-20.78,17.38h-15.64c-.42,0-.76.34-.76.76v16.62c0,.42-.34.76-.76.76h0c-.42,0-.76-.34-.76-.76V2.76c0-.42.34-.76.76-.76h17.15c13,0,20.78,6.42,20.78,17.38Zm-1.51,0c0-10.13-6.72-15.94-19.12-15.94h-15.79c-.42,0-.76.34-.76.76v30.38c0,.42.34.76.76.76h15.79c12.39,0,19.12-5.82,19.12-15.94Z"/><path class="cls-2" d="m282.99,19.38c0,10.96-7.78,17.38-20.78,17.38h-15.64c-.42,0-.76.34-.76.76v16.62c0,.42-.34.76-.76.76h0c-.42,0-.76-.34-.76-.76V2.76c0-.42.34-.76.76-.76h17.15c13,0,20.78,6.42,20.78,17.38Zm-1.51,0c0-10.13-6.72-15.94-19.12-15.94h-15.79c-.42,0-.76.34-.76.76v30.38c0,.42.34.76.76.76h15.79c12.39,0,19.12-5.82,19.12-15.94Z"/><path class="cls-2" d="m297.95,2h0c.42,0,.76.34.76.76v51.38c0,.42-.34.76-.76.76h0c-.42,0-.76-.34-.76-.76V2.76c0-.42.34-.76.76-.76Z"/><path class="cls-2" d="m359.61,2c.42,0,.76.34.76.76v52.14h-.91c-.23,0-.45-.11-.6-.29l-37.18-48.06c-.44-.57-1.35-.26-1.35.46v47.13c0,.42-.34.76-.76.76h0c-.42,0-.76-.34-.76-.76V2h.91c.23,0,.45.11.6.29l37.18,48.06c.44.57,1.35.26,1.35-.46V2.76c0-.42.34-.76.76-.76h0Z"/><path class="cls-2" d="m419.71,29.2h0c.4,0,.72.32.72.72v18c0,.4-.16.79-.45,1.06-4.51,4.24-10.82,6.37-17.76,6.37-15.72,0-27.35-11.41-27.35-26.67s11.64-26.67,27.35-26.67c6.63,0,12.68,1.87,17.14,5.73.61.53.69,1.44.17,2.06h0c-4.84-4.61-10.65-6.35-17.3-6.35-14.81,0-25.84,10.96-25.84,25.24s11.03,25.24,25.84,25.24c6.2,0,11.84-1.55,16.3-5.53.31-.27.48-.67.48-1.08v-17.38c0-.4.32-.72.72-.72Z"/><path id="_3" class="cls-1" d="m41.66,54.51c-.1,0-.2-.03-.28-.1-.15-.13-.15-.35,0-.48l19.42-16.89c.15-.13.4-.13.55,0s.15.35,0,.48l-19.42,16.89c-.08.07-.18.1-.28.1Z"/><path id="_2" class="cls-1" d="m21.67,54.16c-.1,0-.2-.03-.28-.1-.15-.13-.15-.35,0-.48L60.38,19.66c.15-.13.4-.13.55,0s.15.35,0,.48L21.95,54.06c-.08.07-.18.1-.28.1Z"/><path id="_1" class="cls-1" d="m2,23.95c0,1,0-20.47,0-20.47,0-.19.18-.34.39-.34,0,0,58.56,0,58.58,0,0,0,.15.04.21.09,0,0,.11.13.12.2,0,0,0,.08,0,.08,0,.07-.04.14-.11.2,0,0,0,0,0,0,0,0,0,0,0,0,0,0,0,0,0,0,0,0,0,0,0,0,0,0,0,0,0,0C61.19,3.72,1.81,54.74,2,54.4"/></g></svg>